{"title":"Everything Must Go *2010* [BRRip.XviD-miguel] [ENG]","uid":6619212,"size":1546859811,"categoryP":"video","categoryS":"movies","magnet":"?xt=urn:btih:ca4f8e4a43b1089510effd46871d97ea9721bf24&amp;dn=Everything+Must+Go+%2A2010%2A+%5BBRRip.XviD-miguel%5D+%5BENG%5D&amp;tr=udp%3A%2F%2Ftracker.openbittorrent.com%3A80&amp;tr=udp%3A%2F%2Fopen.demonii.com%3A1337&amp;tr=udp%3A%2F%2Ftracker.coppersurfer.tk%3A6969&amp;tr=udp%3A%2F%2Fexodus.desync.com%3A6969","seeders":0,"leechers":1,"uploader":"miguel1983","files":-1,"time":1313924595,"description":" &lt;a href=&quot;http://img69.imageshack.us/img69/2689/everythingmustgo2010.jpg&quot; rel=&quot;nofollow&quot; target=&quot;_NEW&quot;&gt;http://img69.imageshack.us/img69/2689/everythingmustgo2010.jpg&lt;/a&gt;\n\nCountry.......: USA\nGenre.........: Drama, Comedy\nDate release..: 10.09.2010 [World]\nDirector......: Dan Rush\nWriters.......: Dan Rush, Raymond Carver\nDuration......: 97 min.\nMore..........: http://www.imdb.com/title/tt1531663\nTrailer.......: http://www.imdb.com/video/imdb/vi3939933465\nTrailer.......:\n\nPilot :\nWhen an alcoholic relapses, causing him to lose his wife and his job, he holds a yard sale on his front lawn in an attempt to start over. A new neighbor might be the key to his return to form. \n\nCats :\nWill Ferrell   \t ...  \tNick Halsey\nRebecca Hall \t... \tSamantha\nMichael Pena \t... \tFrank Garcia\nStephen Root \t\t\nLaura Dern \t... \tDelilah\nGlenn Howerton \t... \tGary\nShannon Whirry \t... \tNurse\nChristopher Jordan Wallace \t... \tKenny Loftus\nJason Spisak \t... \tHipster\nLeslea Fisher \t... \tSkinny White Girl\nTodd Bryant \t... \tRepo Guy\nAnnie Boon \t... \tWaitress\nDaniel Ganea \t... \tNeighbor\nTomas Johansson \t... \tYard Sale Patron\nLeeann Dearing \t... \tGirlfriend \n\nData Technical :\n!!! SAMPLE !!!\nAudio.....: English\nSubtitles.: English .srt\nFormat                           : AVI\nFormat/Info                      : Audio Video Interleave\nFile size                        : 1.44 GiB\nDuration                         : 1h 37mn\nOverall bit rate                 : 2 118 Kbps\nWriting application              : VirtualDubMod 1.5.10.3\nWriting library                  : VirtualDubMod build 2550/release\nVideo\nID                               : 0\nFormat                           : MPEG-4 Visual\nFormat profile                   : Advanced Simple@L5\nFormat settings, BVOP            : Yes\nFormat settings, QPel            : No\nFormat settings, GMC             : No warppoints\nFormat settings, Matrix          : Default (MPEG)\nCodec ID                         : XVID\nCodec ID/Hint                    : XviD\nDuration                         : 1h 37mn\nBit rate                         : 1 661 Kbps\nWidth                            : 720 pixels\nHeight                           : 304 pixels\nDisplay aspect ratio             : 2.35:1\nFrame rate                       : 23.976 fps\nColor space                      : YUV\nChroma subsampling               : 4:2:0\nBit depth                        : 8 bits\nScan type                        : Progressive\nBits/(Pixel*Frame)               : 0.317\nStream size                      : 1.13 GiB (78%)\nWriting library                  : XviD 64\nAudio\nID                               : 1\nFormat                           : AC-3\nFormat/Info                      : Audio Coding 3\nMode extension                   : CM (complete main)\nCodec ID                         : 2000\nDuration                         : 1h 37mn\nBit rate mode                    : Constant\nBit rate                         : 448 Kbps\nChannel(s)                       : 6 channels\nChannel positions                : Front: L C R, Side: L R, LFE\nSampling rate                    : 48.0 KHz\nBit depth                        : 16 bits\nStream size                      : 311 MiB (21%)\nAlignment                        : Split accross interleaves\nInterleave, duration             : 42 ms (1.00 video frame)\nInterleave, preload duration     : 500 ms\n\nScreen : &lt;a href=&quot;\nhttp://img217.imageshack.us/img217/289/everythingmustgo2010s1.jpg&quot; rel=&quot;nofollow&quot; target=&quot;_NEW&quot;&gt;\nhttp://img217.imageshack.us/img217/289/everythingmustgo2010s1.jpg&lt;/a&gt; &lt;a href=&quot;\nhttp://img17.imageshack.us/img17/9397/everythingmustgo2010s2.jpg&quot; rel=&quot;nofollow&quot; target=&quot;_NEW&quot;&gt;\nhttp://img17.imageshack.us/img17/9397/everythingmustgo2010s2.jpg&lt;/a&gt; &lt;a href=&quot;\nhttp://img812.imageshack.us/img812/7686/everythingmustgo2010s3.jpg&quot; rel=&quot;nofollow&quot; target=&quot;_NEW&quot;&gt;\nhttp://img812.imageshack.us/img812/7686/everythingmustgo2010s3.jpg&lt;/a&gt; &lt;a href=&quot;\nhttp://img585.imageshack.us/img585/7163/everythingmustgo2010s4.jpg&quot; rel=&quot;nofollow&quot; target=&quot;_NEW&quot;&gt;\nhttp://img585.imageshack.us/img585/7163/everythingmustgo2010s4.jpg&lt;/a&gt; &lt;a href=&quot;\nhttp://img12.imageshack.us/img12/5175/everythingmustgo2010s5.jpg&quot; rel=&quot;nofollow&quot; target=&quot;_NEW&quot;&gt;\nhttp://img12.imageshack.us/img12/5175/everythingmustgo2010s5.jpg&lt;/a&gt;","torrent":{"xt":"urn:btih:ca4f8e4a43b1089510effd46871d97ea9721bf24","amp;dn":"Everything+Must+Go+%2A2010%2A+%5BBRRip.XviD-miguel%5D+%5BENG%5D","amp;tr":["udp%3A%2F%2Ftracker.openbittorrent.com%3A80","udp%3A%2F%2Fopen.demonii.com%3A1337","udp%3A%2F%2Ftracker.coppersurfer.tk%3A6969","udp%3A%2F%2Fexodus.desync.com%3A6969"],"infoHash":"ca4f8e4a43b1089510effd46871d97ea9721bf24","infoHashBuffer":{"type":"Buffer","data":[202,79,142,74,67,177,8,149,16,239,253,70,135,29,151,234,151,33,191,36]},"announce":[],"urlList":[]}}